<?xml version="1.0" encoding="UTF-8"?> <svg xmlns="http://www.w3.org/2000/svg" width="620" height="600" viewBox="0 0 620 600" fill="none"> <g clip-path="url(#clip0)"> <path d="M316.657 518.725C464.328 518.725 584.039 511.742 584.039 503.129C584.039 494.515 464.328 487.532 316.657 487.532C168.986 487.532 49.2754 494.515 49.2754 503.129C49.2754 511.742 168.986 518.725 316.657 518.725Z" fill="black" fill-opacity="0.2"></path> <path d="M354.345 503.129H278.967L291.723 403.007H341.589L354.345 503.129Z" fill="#407BFF"></path> <path opacity="0.6" d="M354.345 503.129H278.967L287.696 434.626L291.737 403.007H341.575L347.533 449.658L354.345 503.129Z" fill="white"></path> <path opacity="0.1" d="M347.533 449.658L287.696 434.626L291.737 403.007H341.575L347.533 449.658Z" fill="black"></path> <path d="M494.373 156.127H138.939C137.745 156.127 136.562 156.362 135.458 156.819C134.355 157.276 133.353 157.946 132.508 158.791C131.664 159.635 130.995 160.638 130.539 161.741C130.083 162.844 129.85 164.026 129.852 165.22V405.611C129.852 408.019 130.809 410.328 132.513 412.031C134.218 413.734 136.529 414.69 138.939 414.69H494.373C496.783 414.69 499.094 413.734 500.799 412.031C502.503 410.328 503.461 408.019 503.461 405.611V165.247C503.466 164.051 503.235 162.866 502.781 161.76C502.326 160.654 501.658 159.648 500.813 158.8C499.969 157.953 498.965 157.28 497.86 156.822C496.755 156.363 495.57 156.127 494.373 156.127Z" fill="#407BFF"></path> <path opacity="0.7" d="M494.373 156.127H138.939C137.745 156.127 136.562 156.362 135.458 156.819C134.355 157.276 133.353 157.946 132.508 158.791C131.664 159.635 130.995 160.638 130.539 161.741C130.083 162.844 129.85 164.026 129.852 165.22V405.611C129.852 408.019 130.809 410.328 132.513 412.031C134.218 413.734 136.529 414.69 138.939 414.69H494.373C496.783 414.69 499.094 413.734 500.799 412.031C502.503 410.328 503.461 408.019 503.461 405.611V165.247C503.466 164.051 503.235 162.866 502.781 161.76C502.326 160.654 501.658 159.648 500.813 158.8C499.969 157.953 498.965 157.28 497.86 156.822C496.755 156.363 495.57 156.127 494.373 156.127Z" fill="white"></path> <path d="M491.504 165.027H141.821V396.835H491.504V165.027Z" fill="#407BFF"></path> <path d="M379.954 495.606H253.344C252.552 495.606 251.91 496.248 251.91 497.039V501.572C251.91 502.363 252.552 503.005 253.344 503.005H379.954C380.746 503.005 381.388 502.363 381.388 501.572V497.039C381.388 496.248 380.746 495.606 379.954 495.606Z" fill="#407BFF"></path> <path opacity="0.7" d="M379.954 495.606H253.344C252.552 495.606 251.91 496.248 251.91 497.039V501.572C251.91 502.363 252.552 503.005 253.344 503.005H379.954C380.746 503.005 381.388 502.363 381.388 501.572V497.039C381.388 496.248 380.746 495.606 379.954 495.606Z" fill="white"></path> <path opacity="0.2" d="M491.504 165.247H141.821V199.801H491.504V165.247Z" fill="black"></path> <path opacity="0.4" d="M291.668 200.215H141.821V396.835H291.668V200.215Z" fill="white"></path> <path d="M437.68 250.365V253.81H434.232" stroke="white" stroke-miterlimit="10"></path> <path d="M426.952 253.81H314.009" stroke="white" stroke-miterlimit="10" stroke-dasharray="5.28 5.28"></path> <path d="M310.368 253.81H306.92V250.365" stroke="white" stroke-miterlimit="10"></path> <path d="M306.92 244.124V184.839" stroke="white" stroke-miterlimit="10" stroke-dasharray="4.53 4.53"></path> <path d="M306.92 181.725V178.281H310.368" stroke="white" stroke-miterlimit="10"></path> <path d="M317.648 178.281H430.592" stroke="white" stroke-miterlimit="10" stroke-dasharray="5.28 5.28"></path> <path d="M434.232 178.281H437.68V181.725" stroke="white" stroke-miterlimit="10"></path> <path d="M437.68 187.966V247.251" stroke="white" stroke-miterlimit="10" stroke-dasharray="4.53 4.53"></path> <path d="M439.874 176.09H435.502V180.458H439.874V176.09Z" fill="#407BFF" stroke="white" stroke-miterlimit="10"></path> <path d="M439.874 251.633H435.502V256H439.874V251.633Z" fill="#407BFF" stroke="white" stroke-miterlimit="10"></path> <path d="M309.098 176.09H304.727V180.458H309.098V176.09Z" fill="#407BFF" stroke="white" stroke-miterlimit="10"></path> <path d="M309.098 251.633H304.727V256H309.098V251.633Z" fill="#407BFF" stroke="white" stroke-miterlimit="10"></path> <path d="M374.493 176.09H370.121V180.458H374.493V176.09Z" fill="#407BFF" stroke="white" stroke-miterlimit="10"></path> <path d="M374.493 251.633H370.121V256H374.493V251.633Z" fill="#407BFF" stroke="white" stroke-miterlimit="10"></path> <path d="M439.874 213.855H435.502V218.222H439.874V213.855Z" fill="#407BFF" stroke="white" stroke-miterlimit="10"></path> <path d="M309.098 213.855H304.727V218.222H309.098V213.855Z" fill="#407BFF" stroke="white" stroke-miterlimit="10"></path> <path opacity="0.7" d="M425.807 203.645H393.8C392.36 203.645 391.193 204.811 391.193 206.249V214.805C391.193 216.243 392.36 217.409 393.8 217.409H425.807C427.247 217.409 428.414 216.243 428.414 214.805V206.249C428.414 204.811 427.247 203.645 425.807 203.645Z" fill="white"></path> <path opacity="0.7" d="M370.645 203.645H338.638C337.198 203.645 336.031 204.811 336.031 206.249V214.805C336.031 216.243 337.198 217.409 338.638 217.409H370.645C372.085 217.409 373.252 216.243 373.252 214.805V206.249C373.252 204.811 372.085 203.645 370.645 203.645Z" fill="white"></path> <path opacity="0.7" d="M299.639 371.167H267.632C266.192 371.167 265.025 372.333 265.025 373.771V382.327C265.025 383.765 266.192 384.931 267.632 384.931H299.639C301.079 384.931 302.246 383.765 302.246 382.327V373.771C302.246 372.333 301.079 371.167 299.639 371.167Z" fill="white"></path> <path d="M468.42 177.537H480.059" stroke="white" stroke-width="1.5" stroke-linecap="round" stroke-linejoin="round"></path> <path d="M468.42 183.048H480.059" stroke="white" stroke-width="1.5" stroke-linecap="round" stroke-linejoin="round"></path> <path d="M468.42 188.559H480.059" stroke="white" stroke-width="1.5" stroke-linecap="round" stroke-linejoin="round"></path> <path opacity="0.5" d="M282.815 230.691H165.527V347.869H282.815V230.691Z" fill="white"></path> <path d="M214.621 240.266V341.352" stroke="#407BFF" stroke-miterlimit="10"></path> <path d="M265.204 341.352C251.785 341.352 238.916 336.027 229.427 326.547C219.938 317.067 214.607 304.209 214.607 290.802V290.802C214.607 277.399 219.937 264.545 229.423 255.068C238.909 245.591 251.775 240.266 265.191 240.266V240.266" stroke="#407BFF" stroke-miterlimit="10"></path> <path d="M267.397 238.089H263.025V242.457H267.397V238.089Z" fill="white" stroke="#407BFF" stroke-miterlimit="10"></path> <path d="M267.397 339.162H263.025V343.529H267.397V339.162Z" fill="white" stroke="#407BFF" stroke-miterlimit="10"></path> <path d="M216.813 288.625H212.441V292.993H216.813V288.625Z" fill="white" stroke="#407BFF" stroke-miterlimit="10"></path> <path d="M215.752 240.266C215.752 240.49 215.686 240.708 215.561 240.894C215.437 241.08 215.26 241.224 215.054 241.31C214.847 241.395 214.62 241.418 214.4 241.374C214.181 241.331 213.98 241.223 213.821 241.065C213.663 240.907 213.556 240.706 213.512 240.487C213.468 240.267 213.491 240.04 213.576 239.834C213.662 239.627 213.807 239.451 213.993 239.327C214.179 239.203 214.397 239.136 214.621 239.136C214.92 239.14 215.205 239.26 215.417 239.471C215.628 239.682 215.748 239.968 215.752 240.266V240.266Z" fill="white" stroke="#407BFF" stroke-miterlimit="10"></path> <path d="M215.752 341.352C215.752 341.575 215.686 341.793 215.562 341.978C215.439 342.164 215.263 342.309 215.057 342.395C214.851 342.481 214.624 342.504 214.405 342.461C214.186 342.419 213.985 342.312 213.826 342.156C213.668 341.999 213.559 341.799 213.514 341.581C213.468 341.363 213.489 341.136 213.572 340.929C213.656 340.723 213.799 340.545 213.983 340.42C214.167 340.294 214.384 340.225 214.607 340.222C214.757 340.221 214.905 340.249 215.044 340.305C215.183 340.36 215.309 340.443 215.416 340.548C215.522 340.654 215.607 340.779 215.664 340.917C215.722 341.055 215.752 341.203 215.752 341.352V341.352Z" fill="white" stroke="#407BFF" stroke-miterlimit="10"></path> <path opacity="0.7" d="M408.955 372.834H373.445C370.723 372.834 368.114 371.754 366.19 369.832C364.266 367.909 363.185 365.302 363.185 362.584C363.185 359.865 364.266 357.258 366.19 355.335C368.114 353.413 370.723 352.333 373.445 352.333H408.955C411.676 352.333 414.286 353.413 416.21 355.335C418.134 357.258 419.215 359.865 419.215 362.584C419.215 365.302 418.134 367.909 416.21 369.832C414.286 371.754 411.676 372.834 408.955 372.834Z" fill="white"></path> <path opacity="0.7" d="M440.149 285.415H330.446C329.85 285.415 329.278 285.179 328.857 284.758C328.435 284.336 328.198 283.765 328.198 283.17C328.209 282.582 328.451 282.023 328.872 281.613C329.293 281.203 329.858 280.975 330.446 280.979H440.135C440.429 280.977 440.721 281.034 440.994 281.145C441.267 281.256 441.515 281.42 441.723 281.628C441.932 281.835 442.098 282.082 442.211 282.354C442.324 282.625 442.383 282.917 442.383 283.211V283.211C442.372 283.797 442.132 284.356 441.715 284.767C441.297 285.179 440.735 285.412 440.149 285.415V285.415Z" fill="white"></path> <path opacity="0.7" d="M440.149 301.769H330.446C330.152 301.771 329.86 301.715 329.587 301.603C329.314 301.492 329.066 301.328 328.857 301.12C328.649 300.913 328.483 300.666 328.37 300.395C328.256 300.123 328.198 299.832 328.198 299.537C328.198 298.942 328.435 298.371 328.857 297.949C329.278 297.528 329.85 297.292 330.446 297.292H440.135C440.731 297.292 441.303 297.528 441.724 297.949C442.146 298.371 442.383 298.942 442.383 299.537C442.383 300.129 442.147 300.697 441.728 301.116C441.309 301.534 440.741 301.769 440.149 301.769V301.769Z" fill="white"></path> <path opacity="0.7" d="M440.148 318.178H371.817C371.223 318.178 370.654 317.944 370.233 317.526C369.811 317.107 369.573 316.54 369.569 315.946V315.946C369.569 315.351 369.806 314.78 370.228 314.358C370.649 313.937 371.221 313.701 371.817 313.701H440.135C440.731 313.701 441.303 313.937 441.724 314.358C442.146 314.78 442.383 315.351 442.383 315.946C442.379 316.537 442.142 317.103 441.724 317.521C441.306 317.938 440.74 318.175 440.148 318.178V318.178Z" fill="white"></path> <path opacity="0.4" d="M160.618 174.823H152.868V182.566H160.618V174.823Z" fill="black"></path> <path opacity="0.4" d="M173.691 174.823H169.913C168.816 174.823 167.927 175.711 167.927 176.807V180.582C167.927 181.677 168.816 182.566 169.913 182.566H173.691C174.788 182.566 175.677 181.677 175.677 180.582V176.807C175.677 175.711 174.788 174.823 173.691 174.823Z" fill="black"></path> <path opacity="0.4" d="M187.206 174.823H186.544C184.587 174.823 183 176.408 183 178.364V179.025C183 180.98 184.587 182.566 186.544 182.566H187.206C189.163 182.566 190.75 180.98 190.75 179.025V178.364C190.75 176.408 189.163 174.823 187.206 174.823Z" fill="black"></path> <path opacity="0.9" d="M176.614 365.711V362.694L175.069 362.556C174.849 361.576 174.457 360.644 173.911 359.8L174.904 358.602L172.766 356.466L171.567 357.458C170.723 356.913 169.789 356.521 168.809 356.301L168.671 354.758H165.651L165.499 356.301C164.519 356.522 163.585 356.914 162.741 357.458L161.541 356.466L159.403 358.602L160.396 359.8C159.84 360.638 159.447 361.573 159.238 362.556L157.68 362.694V365.711L159.238 365.863C159.448 366.846 159.841 367.78 160.396 368.618L159.403 369.83L161.541 371.952L162.741 370.96C163.579 371.516 164.515 371.908 165.499 372.118L165.651 373.674H168.671L168.809 372.118C169.793 371.909 170.729 371.516 171.567 370.96L172.766 371.952L174.904 369.83L173.911 368.618C174.461 367.778 174.854 366.844 175.069 365.863L176.614 365.711ZM167.112 368.287C166.294 368.287 165.494 368.045 164.814 367.591C164.134 367.137 163.603 366.491 163.29 365.736C162.977 364.981 162.895 364.15 163.055 363.348C163.214 362.546 163.608 361.81 164.187 361.232C164.766 360.653 165.503 360.26 166.305 360.1C167.108 359.941 167.94 360.023 168.696 360.336C169.451 360.648 170.098 361.178 170.552 361.858C171.007 362.538 171.249 363.337 171.249 364.154C171.249 365.25 170.814 366.302 170.038 367.077C169.262 367.852 168.21 368.287 167.112 368.287Z" fill="white"></path> <path opacity="0.6" d="M188.861 374.226V371.911L187.648 371.787C187.483 371.011 187.174 370.272 186.738 369.61L187.51 368.659L185.841 366.992L184.904 367.778C184.236 367.341 183.492 367.033 182.711 366.868L182.601 365.642H180.229L180.118 366.868C179.337 367.033 178.594 367.341 177.926 367.778L176.988 366.992L175.305 368.659L176.091 369.61C175.655 370.272 175.346 371.011 175.181 371.787L173.968 371.911V374.267L175.181 374.391C175.346 375.167 175.655 375.905 176.091 376.568L175.305 377.518L176.988 379.185L177.926 378.4C178.594 378.837 179.337 379.145 180.118 379.309L180.229 380.522H182.601L182.711 379.309C183.492 379.145 184.236 378.837 184.904 378.4L185.841 379.185L187.51 377.518L186.738 376.568C187.174 375.905 187.483 375.167 187.648 374.391L188.861 374.226ZM181.415 376.251C180.778 376.254 180.156 376.068 179.626 375.717C179.095 375.365 178.682 374.865 178.436 374.279C178.191 373.692 178.125 373.047 178.248 372.423C178.37 371.799 178.675 371.226 179.124 370.776C179.573 370.325 180.145 370.018 180.769 369.893C181.392 369.768 182.039 369.831 182.627 370.074C183.215 370.316 183.718 370.728 184.071 371.256C184.425 371.784 184.614 372.405 184.614 373.041C184.616 373.462 184.534 373.879 184.374 374.268C184.214 374.658 183.979 375.011 183.682 375.31C183.384 375.608 183.031 375.845 182.642 376.006C182.253 376.168 181.836 376.251 181.415 376.251V376.251Z" fill="white"></path> <path opacity="0.4" d="M176.615 380.935V378.951L175.595 378.855C175.458 378.202 175.201 377.581 174.836 377.022L175.498 376.237L174.119 374.859L173.319 375.507C172.76 375.143 172.138 374.886 171.485 374.749L171.389 373.73H169.375L169.279 374.749C168.625 374.886 168.003 375.143 167.444 375.507L166.645 374.859L165.266 376.237L165.928 377.022C165.563 377.581 165.306 378.202 165.169 378.855L164.135 378.951V380.935L165.169 381.032C165.303 381.689 165.561 382.316 165.928 382.878L165.266 383.663L166.645 385.041L167.444 384.38C168 384.754 168.623 385.016 169.279 385.151L169.375 386.171H171.361L171.457 385.151C172.113 385.016 172.736 384.754 173.292 384.38L174.091 385.041L175.47 383.663L174.809 382.878C175.175 382.316 175.433 381.689 175.567 381.032L176.615 380.935ZM170.368 382.63C169.839 382.616 169.326 382.447 168.893 382.144C168.46 381.841 168.126 381.417 167.933 380.925C167.74 380.433 167.697 379.895 167.808 379.378C167.92 378.862 168.181 378.389 168.56 378.021C168.938 377.652 169.418 377.403 169.937 377.304C170.457 377.206 170.994 377.263 171.481 377.468C171.969 377.674 172.385 378.018 172.677 378.458C172.97 378.898 173.126 379.415 173.126 379.943C173.126 380.302 173.054 380.657 172.915 380.988C172.776 381.318 172.571 381.617 172.314 381.868C172.057 382.118 171.753 382.315 171.418 382.446C171.084 382.576 170.727 382.639 170.368 382.63V382.63Z" fill="white"></path> <path d="M436.88 177.496L442.727 193.119L452.504 183.337L436.88 177.496Z" fill="#407BFF"></path> <path d="M446.298 184.72L444.113 186.902L448.96 191.744L451.144 189.562L446.298 184.72Z" fill="#407BFF"></path> <path opacity="0.4" d="M452.504 183.337L436.88 177.496L442.727 193.119L446.533 189.317L448.946 191.742L451.125 189.565L448.712 187.14L452.504 183.337Z" fill="white"></path> <path d="M197.315 233.336L212.029 238.847L204.32 231.145C204.035 231.309 203.704 231.375 203.377 231.333C203.051 231.291 202.748 231.142 202.514 230.911C202.228 230.626 202.068 230.24 202.068 229.837C202.068 229.433 202.228 229.047 202.514 228.762C202.799 228.477 203.186 228.317 203.589 228.317C203.993 228.317 204.38 228.477 204.665 228.762C204.896 228.996 205.045 229.299 205.087 229.625C205.129 229.951 205.063 230.282 204.899 230.567L212.608 238.268L207.092 223.568L202.21 224.642L202.031 222.893L201.107 221.97L195.701 227.37L196.625 228.293L198.39 228.473L197.315 233.336Z" fill="#263238"></path> <path opacity="0.2" d="M197.315 233.336L212.029 238.847L204.32 231.145C204.035 231.309 203.704 231.375 203.377 231.333C203.051 231.291 202.748 231.142 202.514 230.911C202.228 230.626 202.068 230.24 202.068 229.837C202.068 229.433 202.228 229.047 202.514 228.762C202.799 228.477 203.186 228.317 203.589 228.317C203.993 228.317 204.38 228.477 204.665 228.762C204.896 228.996 205.045 229.299 205.087 229.625C205.129 229.951 205.063 230.282 204.899 230.567L212.608 238.268L207.092 223.568L202.21 224.642L202.031 222.893L201.107 221.97L195.701 227.37L196.625 228.293L198.39 228.473L197.315 233.336Z" fill="white"></path> <g opacity="0.1"> <path opacity="0.1" d="M192.957 165.027L141.133 358.492V165.027H192.957Z" fill="white"></path> <path opacity="0.1" d="M251.442 165.027L189.344 396.835H146.566L208.651 165.027H251.442Z" fill="white"></path> <path opacity="0.1" d="M313.636 165.027L251.538 396.835H232.19L294.289 165.027H313.636Z" fill="white"></path> <path opacity="0.1" d="M370.909 165.027L308.81 396.835H301.888L363.986 165.027H370.909Z" fill="white"></path> </g> <path d="M581.294 216.224C586.189 221.859 611.095 269.792 606.282 280.979C601.469 292.166 561.56 279.271 561.56 279.271L563.945 263.468C563.945 263.468 579.446 264.019 580.935 262.545C582.424 261.07 559.96 238.668 559.96 238.668L581.294 216.224Z" fill="#263238"></path> <g opacity="0.2"> <path opacity="0.2" d="M606.255 280.979C605.663 282.274 604.632 283.318 603.345 283.927V283.927L602.545 284.286H602.435C602.188 284.389 601.934 284.477 601.676 284.547C600.555 284.907 599.4 285.147 598.229 285.264L597.222 285.36C596.725 285.36 596.229 285.429 595.719 285.443H594.34C580.963 285.443 561.505 279.174 561.505 279.174L563.89 263.371C563.89 263.371 579.391 263.922 580.88 262.448C581.239 262.09 580.177 260.492 578.37 258.315C573.985 252.928 565.201 243.959 561.574 240.294L559.933 238.64L581.294 216.224C586.189 221.804 611.095 269.736 606.255 280.979Z" fill="white"></path> </g> <path opacity="0.2" d="M603.371 283.886L602.572 284.244H602.461C602.214 284.348 601.961 284.435 601.703 284.506C600.582 284.865 599.426 285.105 598.255 285.222L597.248 285.319C596.752 285.319 596.256 285.388 595.745 285.402H594.366C580.99 285.402 561.531 279.133 561.531 279.133L563.917 263.33C563.917 263.33 581.376 264.804 582.865 263.33C583.141 262.751 581.21 260.795 578.356 258.301C573.97 252.914 565.186 243.945 561.559 240.28L571.653 229.506L579.335 228.679C579.335 228.679 596.338 256.179 603.371 283.886Z" fill="black"></path> <path d="M530.972 214.599C528.214 216.596 526.835 219.434 527.938 220.936L600.807 321.306C601.896 322.808 605.027 322.394 607.785 320.397C610.543 318.399 611.922 315.547 610.818 314.059L537.95 213.675C536.861 212.187 533.744 212.587 530.972 214.599Z" fill="#263238"></path> <path opacity="0.7" d="M537.951 213.675L610.819 314.045C611.908 315.533 610.543 318.371 607.785 320.383C605.027 322.394 601.897 322.78 600.821 321.292L527.953 220.909C527.674 220.386 527.551 219.794 527.597 219.203C527.644 218.613 527.858 218.048 528.215 217.575C528.587 216.911 529.051 216.303 529.594 215.77C530.016 215.334 530.478 214.937 530.973 214.585C533.744 212.601 536.861 212.187 537.951 213.675Z" fill="white"></path> <path opacity="0.3" d="M610.819 314.045C611.909 315.533 610.543 318.371 607.785 320.383C605.027 322.394 601.897 322.78 600.821 321.292C600.214 320.466 601.718 319.212 602.6 317.407L528.215 217.602C528.587 216.938 529.051 216.331 529.594 215.797L602.476 316.181C602.904 315.746 603.365 315.345 603.855 314.982C606.613 312.97 609.73 312.557 610.819 314.045Z" fill="black"></path> <path d="M521.953 211.815C519.622 214.295 518.823 217.327 520.174 218.608L610.777 303.354C612.156 304.621 615.121 303.629 617.451 301.136C619.782 298.642 620.582 295.625 619.23 294.329L528.628 209.584C527.276 208.33 524.284 209.336 521.953 211.815Z" fill="#407BFF"></path> <path opacity="0.7" d="M528.628 209.597L619.231 294.343C620.61 295.597 619.782 298.642 617.452 301.136C615.121 303.629 612.129 304.607 610.777 303.354L520.174 218.608C519.805 218.143 519.574 217.584 519.508 216.994C519.442 216.405 519.544 215.808 519.802 215.274C520.049 214.551 520.393 213.866 520.822 213.235C521.163 212.747 521.541 212.286 521.953 211.857C524.284 209.336 527.276 208.33 528.628 209.597Z" fill="white"></path> <path opacity="0.3" d="M619.23 294.343C620.609 295.597 619.782 298.642 617.451 301.136C615.121 303.629 612.128 304.607 610.777 303.354C610.032 302.651 611.273 301.149 611.797 299.22L519.802 215.301C520.049 214.579 520.392 213.893 520.822 213.262L611.439 298.022C611.772 297.532 612.146 297.071 612.556 296.644C614.886 294.068 617.879 293.076 619.23 294.343Z" fill="black"></path> <path d="M543.729 482.269L536.834 482.38C529.815 449.437 524.85 408.669 521.761 377.918C521.278 373.096 520.837 368.535 520.382 364.278C520.203 362.253 520.023 360.31 519.858 358.436C519.031 349.192 518.479 341.903 518.12 337.329C517.872 334.023 517.748 332.204 517.748 332.204H542.819L542.584 338.555L541.757 359.511L541.674 361.908L541.15 375.755L540.281 399.328C548.845 432.532 543.729 482.269 543.729 482.269Z" fill="#EBB376"></path> <path d="M599.717 480.506L592.918 481.787C579.307 447.798 566.523 404.275 558.207 373.867C556.925 369.155 555.739 364.747 554.677 360.751C554.677 360.544 554.581 360.352 554.525 360.159C552.429 352.223 550.816 345.899 549.809 341.89L548.609 337.026L573.156 332.783L574.535 343.116L576.59 358.271L576.99 361.247L578.369 371.594L582.106 399.342C596.283 430.617 599.717 480.506 599.717 480.506Z" fill="#EBB376"></path> <path opacity="0.2" d="M576.66 358.299L554.679 360.751C554.679 360.544 554.582 360.352 554.527 360.159C552.431 352.223 550.817 345.899 549.811 341.89L574.633 343.116L576.66 358.299Z" fill="black"></path> <path opacity="0.2" d="M542.53 338.555L541.757 359.511L541.675 361.908L520.437 364.264C520.258 362.239 520.079 360.296 519.913 358.423C519.086 349.178 518.534 341.89 518.176 337.315L542.53 338.555Z" fill="black"></path> <path d="M523.332 505.168C524.617 504.125 526.079 503.323 527.648 502.798V502.798C527.648 502.798 532.351 498.141 534.626 484.116L540.777 482.504C541.822 482.255 542.919 482.331 543.92 482.722C544.921 483.114 545.778 483.802 546.376 484.694C546.546 484.944 546.676 485.218 546.762 485.507C547.08 487.012 547.301 488.535 547.424 490.068C547.768 495.195 547.8 500.339 547.52 505.471H546.403L545.962 495.827C545.797 492.534 543.273 496.391 542.556 499.96C541.839 503.528 540.308 507.248 533.109 507.427C524.697 507.551 521.208 507.221 523.332 505.168Z" fill="#263238"></path> <path d="M546.597 484.887C546.996 481.608 547.121 475.904 547.121 475.904L533.44 477.42C533.44 477.42 535.095 483.909 533.73 488.786C540.625 486.899 546.597 484.887 546.597 484.887Z" fill="#263238"></path> <path d="M578.99 505.168C580.276 504.13 581.738 503.332 583.306 502.812V502.812C583.306 502.812 588.009 498.155 590.27 484.129L596.435 482.517C597.48 482.268 598.577 482.345 599.578 482.736C600.579 483.128 601.436 483.816 602.034 484.708C602.203 484.957 602.334 485.232 602.42 485.521C602.738 487.025 602.959 488.549 603.082 490.081C603.424 495.209 603.451 500.353 603.164 505.485H602.116L601.675 495.84C601.51 492.547 598.986 496.405 598.269 499.974C597.552 503.542 596.021 507.262 588.809 507.441C580.355 507.551 576.866 507.221 578.99 505.168Z" fill="#263238"></path> <path d="M602.241 484.887C602.654 481.608 602.779 475.904 602.779 475.904L589.099 477.42C589.099 477.42 590.753 483.909 589.388 488.786C596.283 486.899 602.241 484.887 602.241 484.887Z" fill="#263238"></path> <path d="M579.032 351.534L553.009 354.854L552.002 354.978L546.652 335.387L545.273 356.384L517.388 354.923C504.977 282.081 526.201 264.873 526.201 264.873L564.028 272.478C581.155 301.576 577.087 335.387 577.087 335.387L579.032 351.534Z" fill="#407BFF"></path> <path d="M543.204 174.12C543.204 176.986 541.936 179.3 540.446 179.3C538.957 179.3 537.605 176.986 537.605 174.12C537.605 171.254 538.874 168.94 540.446 168.94C542.018 168.94 543.204 171.254 543.204 174.12Z" stroke="#263238" stroke-width="0.5" stroke-linecap="round" stroke-linejoin="round"></path> <path d="M561.89 191.425C561.79 191.519 561.679 191.602 561.56 191.673C559.986 192.871 558.191 193.747 556.278 194.249C550.693 195.544 546.873 194.773 544.377 192.251C540.888 188.463 540.019 181.753 540.515 173.652C540.602 170.428 541.198 167.238 542.281 164.2C542.281 164.2 542.281 164.076 542.281 164.049C542.281 164.021 542.363 163.814 542.418 163.704C543.102 161.991 544.205 160.476 545.627 159.299C547.048 158.122 548.743 157.32 550.555 156.967C552.126 156.616 553.73 156.436 555.34 156.43C571.158 156.306 573.998 182.455 561.89 191.425Z" fill="#EBB376"></path> <path opacity="0.2" d="M561.56 191.714C559.974 192.843 558.178 193.644 556.278 194.07C550.693 195.365 546.873 194.414 544.377 191.852C547.719 192.678 551.241 192.387 554.403 191.025C555.571 190.595 556.821 190.433 558.06 190.552C559.299 190.672 560.495 191.069 561.56 191.714V191.714Z" fill="black"></path> <path d="M563.159 205.974C564.138 210.465 558.305 212.298 558.305 212.298C548.776 208.164 547.011 203.163 547.011 203.163C554.968 199.03 552.665 187.305 552.665 187.305L554.278 188.104L565.628 190.322C565.628 190.322 562.483 196.357 562.07 197.735C559.918 204.968 563.159 205.974 563.159 205.974Z" fill="#EBB376"></path> <path d="M542.266 164.131C542.266 164.131 541.398 175.153 551.92 179.962C551.92 179.962 556.429 191.466 563.062 191.618C572.123 191.838 580.094 178.984 576.963 165.881C572.867 148.88 547.093 147.502 542.266 164.131Z" fill="#263238"></path> <path d="M546.569 176.779C546.569 175.057 547.948 172.15 550.707 172.549C553.465 172.949 555.037 179.81 548.197 181.339C547.162 181.56 546.569 180.403 546.569 176.779Z" fill="#EBB376"></path> <path d="M561.56 152.365C561.56 152.365 550.996 149.692 545.149 153.95C538.323 158.91 535.73 164.035 543.77 171.998C543.77 171.998 561.518 166.253 567.42 167.465C570.87 168.161 574.256 169.142 577.543 170.4C578.825 158.689 567.462 149.968 561.56 152.365Z" fill="#263238"></path> <path d="M546.569 174.12C546.569 174.12 549.327 186.878 544.997 197.762C544.997 197.762 570.095 206.456 578.825 201.73C587.554 197.005 579.556 181.147 579.183 171.998C578.811 162.85 574.839 149.334 561.559 152.365C548.279 155.396 546.569 174.12 546.569 174.12Z" fill="#263238"></path> <path d="M537.537 173.307H548.142" stroke="#263238" stroke-width="0.5" stroke-linecap="round" stroke-linejoin="round"></path> <path opacity="0.2" d="M553.01 354.854L552.003 354.978L546.652 335.387C546.652 335.387 558.126 315.809 554.54 305.613C555.051 306.33 567.407 324.64 553.01 354.854Z" fill="black"></path> <path d="M531.523 204.982C531.523 204.982 544.141 200.49 563.158 205.974C582.175 211.457 582.892 219.545 582.892 219.545C582.892 219.545 570.84 246.838 568.937 277.741L519.374 275.895C519.374 275.895 513.458 232.275 531.523 204.982Z" fill="#263238"></path> <path opacity="0.2" d="M582.894 219.545C582.894 219.545 570.841 246.838 568.938 277.741L519.375 275.895C518.783 270.865 518.479 265.805 518.465 260.74C518.367 253.326 518.828 245.916 519.844 238.572C521.499 227.136 524.905 214.929 531.524 204.927C531.524 204.927 544.143 200.435 563.16 205.919C582.177 211.402 582.894 219.545 582.894 219.545Z" fill="white"></path> <path opacity="0.2" d="M530.834 240.487C530.834 240.487 528.78 253.052 518.423 260.795C518.325 253.381 518.786 245.971 519.802 238.627L530.834 240.487Z" fill="black"></path> <path d="M476.073 204.114L469.826 194.855C469.826 194.855 468.874 190.832 467.661 189.923C466.447 189.014 454.45 183.902 453.002 183.93C451.554 183.957 451.623 193.271 453.002 194.855C454.381 196.44 462.021 199.829 464.034 200.173C466.047 200.518 465.054 200.173 465.054 200.173L470.571 211.196L476.073 204.114Z" fill="#EBB376"></path> <path d="M531.524 204.982C518.141 210.581 505.229 217.244 492.911 224.904L472.736 197.349C472.736 197.349 467.302 199.03 465.289 208.481C465.289 208.481 475.646 247.899 489.105 251.812C502.564 255.725 530.862 240.418 530.862 240.418C530.862 240.418 539.054 219.944 531.524 204.982Z" fill="#263238"></path> <path opacity="0.2" d="M531.524 204.982C518.141 210.581 505.229 217.244 492.911 224.904L472.736 197.349C472.736 197.349 467.302 199.03 465.289 208.481C465.289 208.481 475.646 247.899 489.105 251.812C502.564 255.725 530.862 240.418 530.862 240.418C530.862 240.418 539.054 219.944 531.524 204.982Z" fill="white"></path> <path d="M544.28 203.246C544.28 203.246 548.679 234.714 562.621 235.981C576.563 237.249 582.811 213.937 580.452 211.182C578.094 208.426 560.125 203.039 544.28 203.246Z" fill="#263238"></path> <path opacity="0.3" d="M544.28 203.246C544.28 203.246 548.679 234.714 562.621 235.981C576.563 237.249 582.811 213.937 580.452 211.182C578.094 208.426 560.125 203.039 544.28 203.246Z" fill="white"></path> <path d="M48.2402 492.699H58.4589L59.3001 469.057H49.0814L48.2402 492.699Z" fill="#B97964"></path> <path d="M59.8655 491.514H47.4542C47.2497 491.51 47.0506 491.579 46.8916 491.707C46.7327 491.836 46.6243 492.016 46.5854 492.217L44.572 501.296C44.5295 501.49 44.5258 501.69 44.5611 501.885C44.5964 502.08 44.67 502.266 44.7777 502.433C44.8854 502.599 45.0251 502.743 45.1886 502.855C45.3521 502.968 45.5362 503.046 45.7304 503.087H46.0613C50.0743 503.018 52.9565 502.77 58.0314 502.77C61.148 502.77 70.4427 503.101 74.8005 503.101C79.1583 503.101 79.6409 498.871 77.8895 498.486C70.0152 496.763 64.0992 494.352 61.5755 492.134C61.1046 491.719 60.4935 491.497 59.8655 491.514V491.514Z" fill="#263238"></path> <path d="M60.5689 492.933C60.522 492.92 60.48 492.894 60.4482 492.857C60.4163 492.82 60.3959 492.775 60.3896 492.727C60.3809 492.681 60.3869 492.634 60.4067 492.591C60.4266 492.549 60.4592 492.515 60.4999 492.492C60.8723 492.258 64.1682 490.233 65.299 490.811C65.4267 490.871 65.5341 490.967 65.6076 491.087C65.6812 491.207 65.7178 491.346 65.7127 491.486C65.7504 491.728 65.723 491.976 65.6333 492.203C65.5436 492.431 65.3949 492.63 65.2025 492.782C64.6316 493.181 63.9383 493.366 63.2442 493.305C62.3417 493.277 61.4448 493.152 60.5689 492.933ZM61.2722 492.589C62.4646 492.992 63.7659 492.928 64.9129 492.41C65.0322 492.301 65.1235 492.166 65.1788 492.015C65.234 491.864 65.2516 491.701 65.23 491.542C65.23 491.349 65.1473 491.252 65.0783 491.252C64.9804 491.202 64.8711 491.178 64.7612 491.183C63.5196 491.427 62.3357 491.904 61.2722 492.589V492.589Z" fill="#407BFF"></path> <path d="M60.5004 492.974C60.4643 492.95 60.4352 492.918 60.4159 492.879C60.3965 492.84 60.3876 492.797 60.39 492.754C60.39 492.616 60.6521 489.682 61.7691 488.717C61.906 488.594 62.0686 488.503 62.2451 488.451C62.4216 488.398 62.6076 488.386 62.7896 488.414C62.9729 488.416 63.1503 488.479 63.2929 488.594C63.4356 488.709 63.5352 488.869 63.5756 489.048C63.7825 490.122 61.7415 492.368 60.6796 492.947H60.5693L60.5004 492.974ZM62.1414 489.02C61.4258 489.939 61.0073 491.054 60.9417 492.217C61.9897 491.418 63.286 489.723 63.1619 489.062C63.1619 489.062 63.1619 488.814 62.8034 488.814H62.693C62.4898 488.811 62.293 488.885 62.1414 489.02V489.02Z" fill="#407BFF"></path> <path opacity="0.2" d="M49.0819 469.07H59.3006L58.8593 481.263H48.6406L49.0819 469.07Z" fill="black"></path> <path d="M100.823 493.457L111.373 494.573L113.345 471.867L102.809 470.751L100.823 493.457Z" fill="#B97964"></path> <path d="M112.476 491.183H100.147C99.9444 491.185 99.7479 491.255 99.59 491.383C99.4322 491.511 99.3224 491.688 99.2787 491.886L97.2653 500.979C97.2158 501.17 97.2048 501.369 97.233 501.564C97.2611 501.759 97.3278 501.947 97.4292 502.116C97.5305 502.286 97.6646 502.433 97.8235 502.55C97.9824 502.667 98.1629 502.751 98.3547 502.798H98.6857C102.699 502.729 105.581 502.481 110.67 502.481C113.772 502.481 123.081 502.798 127.425 502.798C131.769 502.798 132.265 498.568 130.514 498.182C122.64 496.474 116.724 494.049 114.2 491.831C113.726 491.408 113.111 491.177 112.476 491.183V491.183Z" fill="#263238"></path> <path d="M113.179 492.603C113.132 492.589 113.09 492.563 113.058 492.526C113.026 492.489 113.006 492.444 113 492.396C112.99 492.348 112.996 492.299 113.019 492.256C113.042 492.213 113.079 492.18 113.124 492.162C113.482 491.927 116.778 489.902 117.909 490.495C118.037 490.55 118.145 490.643 118.219 490.761C118.292 490.879 118.329 491.017 118.323 491.156C118.356 491.398 118.328 491.645 118.242 491.874C118.155 492.102 118.012 492.306 117.826 492.465C117.245 492.852 116.55 493.031 115.854 492.975C114.952 492.946 114.055 492.822 113.179 492.603V492.603ZM113.882 492.272C115.076 492.671 116.378 492.602 117.523 492.079C117.643 491.972 117.735 491.836 117.791 491.685C117.846 491.533 117.863 491.371 117.84 491.211C117.84 491.018 117.757 490.935 117.688 490.935C117.597 490.881 117.491 490.856 117.385 490.867C116.155 491.107 114.984 491.584 113.937 492.272H113.882Z" fill="#407BFF"></path> <path d="M113.124 492.658C113.086 492.634 113.055 492.602 113.034 492.563C113.012 492.525 113 492.481 113 492.437C113 492.286 113.262 489.365 114.448 488.4C114.588 488.282 114.751 488.194 114.926 488.139C115.101 488.085 115.286 488.066 115.468 488.083C115.652 488.083 115.831 488.145 115.974 488.261C116.117 488.376 116.216 488.537 116.255 488.717C116.461 489.806 114.42 492.051 113.359 492.616H113.248L113.124 492.658ZM114.751 488.69C114.036 489.604 113.617 490.714 113.552 491.872C114.6 491.087 115.896 489.379 115.772 488.717C115.772 488.717 115.772 488.469 115.413 488.469H115.317C115.108 488.475 114.908 488.553 114.751 488.69V488.69Z" fill="#407BFF"></path> <path opacity="0.2" d="M102.809 470.751L113.345 471.867L112.31 483.578L101.774 482.462L102.809 470.751Z" fill="black"></path> <path d="M53.2597 261.759H107.497C112.641 289.879 128.776 389.367 117.151 478.067L98.7955 475.794C98.7955 475.794 100.492 358.12 84.3018 314.596C82.4401 337.88 80.1647 362.652 78.303 375.838C73.5867 408.284 63.4921 479.169 63.4921 479.169H44.8613C44.8613 479.169 48.6813 411.301 50.4464 379.42C52.3771 344.769 53.2597 268.868 53.2597 261.759Z" fill="#263238"></path> <path d="M119.302 482.283L96.5889 478.908L97.2922 472.625L120.915 475.725L119.302 482.283Z" fill="#407BFF"></path> <path d="M65.7958 479.293H43.7588V472.721L66.6232 472.294L65.7958 479.293Z" fill="#407BFF"></path> <path opacity="0.2" d="M84.3574 314.555C87.0188 322.182 89.0437 330.016 90.4114 337.977C91.9284 317.31 85.8606 295.266 85.8606 295.266L84.3574 314.555Z" fill="black"></path> <path d="M51.7568 271.183L50.5156 277.727C50.5156 277.727 88.453 282.632 112.048 282.494L111.221 278.003L51.7568 271.183Z" fill="#407BFF"></path> <path d="M128.748 214.516C128.748 214.516 141.863 255.849 150.813 258.604C159.763 261.36 182.531 227.205 182.531 227.205C182.531 227.205 202.982 227.012 203.892 225.621C204.802 224.229 198.583 209.832 197.093 209.818C195.604 209.804 177.787 216.5 177.111 217.63C176.435 218.759 155.984 238.296 155.046 237.717C154.109 237.139 146.331 212.573 146.331 212.573L128.748 214.516Z" fill="#B97964"></path> <path d="M185.234 224.974C185.398 224.94 185.559 224.899 185.718 224.849L185.483 224.697C185.408 224.796 185.324 224.888 185.234 224.974V224.974Z" fill="#B97964"></path> <path d="M121.302 209.749L122.901 212.683L130.362 226.461L131.92 229.313L152.868 222.038C152.868 222.038 144.152 189.551 141.132 186.217L121.302 209.749Z" fill="#407BFF"></path> <path opacity="0.4" d="M121.302 209.749L122.901 212.683L130.362 226.461L131.92 229.313L152.868 222.038C152.868 222.038 144.152 189.551 141.132 186.217L121.302 209.749Z" fill="white"></path> <path opacity="0.2" d="M122.901 212.683L130.362 226.461C134.982 217.409 133.644 205.009 133.644 205.009L122.901 212.683Z" fill="black"></path> <path d="M141.132 186.231C137.186 181.677 132.353 177.974 126.929 175.345C121.505 172.716 115.602 171.216 109.58 170.937C89.0599 169.973 82.606 172.012 75.104 178.708C64.1406 188.49 50.502 272.712 50.502 272.712C70.5108 278.278 91.2962 280.535 112.035 279.395C112.035 279.395 112.283 255.973 119.688 240.252C128.029 222.741 135.192 204.693 141.132 186.231V186.231Z" fill="#407BFF"></path> <path opacity="0.4" d="M50.502 272.712C70.5108 278.279 91.2956 280.54 112.035 279.408C112.035 279.408 112.035 276.515 112.435 272.092C112.6 269.998 112.848 267.546 113.193 264.901C113.538 262.255 114.034 259.238 114.572 256.234C114.903 254.622 115.289 252.997 115.703 251.385C116.665 247.558 117.976 243.827 119.619 240.239C120.53 238.31 121.412 236.395 122.267 234.521C123.743 231.242 125.149 228.059 126.404 225.014C129.162 218.608 131.507 212.752 133.465 207.627C134.844 203.948 136.085 200.656 137.092 197.831C138.209 194.676 139.091 192.086 139.739 190.157C140.581 187.608 140.994 186.217 140.994 186.217C140.309 185.36 139.572 184.545 138.788 183.778C131.092 176.199 120.916 171.649 110.132 170.965H109.442C93.8037 170.235 86.3432 171.241 80.3581 174.726C78.4283 175.88 76.6215 177.228 74.9661 178.749C73.4094 180.435 72.1837 182.398 71.353 184.536C68.8041 190.458 66.7111 196.565 65.0922 202.805L64.182 206.153C62.803 211.264 61.5067 216.707 60.2655 222.218C59.907 223.788 59.5622 225.359 59.2175 226.916C58.7072 229.313 58.197 231.697 57.7143 234.053C56.4732 239.991 55.3562 245.75 54.3771 250.93C52.998 258.37 51.881 264.597 51.2191 268.469C50.764 271.197 50.502 272.712 50.502 272.712ZM110.766 171.723C112.149 171.758 113.53 171.863 114.903 172.04C120.419 172.784 128.9 177.206 128.693 179.3C128.487 181.395 125.26 186.74 117.013 185.445C114.14 184.915 111.413 183.779 109.015 182.111C104.464 179.108 101.154 175.043 100.823 173.72C100.409 172.136 105.76 171.599 110.78 171.75L110.766 171.723Z" fill="white"></path> <path d="M93.0862 199.801C93.0862 199.801 82.2194 226.075 79.9854 247.913L109.373 251.66C109.373 251.66 122.556 216.155 125.287 205.051C125.287 205.023 101.816 202.681 93.0862 199.801Z" fill="#407BFF"></path> <path opacity="0.4" d="M119.551 206.056L123.633 206.456L120.64 208.771L119.551 206.056Z" fill="white"></path> <path d="M103.555 173.789C105.775 180.127 114.035 183.02 118.366 183.434C119.96 183.685 121.593 183.406 123.014 182.639C124.434 181.872 125.563 180.66 126.226 179.19C126.226 179.19 121.275 176.724 121.772 173.955C122.122 172.261 122.817 170.657 123.813 169.243C124.328 168.435 124.89 167.658 125.495 166.914L117.566 149.927C115.801 157.284 110.381 171.42 103.555 173.789Z" fill="#B97964"></path> <path opacity="0.2" d="M117.247 157.766C113.469 166.033 118.805 171.723 121.77 173.9C122.121 172.206 122.816 170.602 123.811 169.188L117.247 157.766Z" fill="black"></path> <path d="M143.835 135.708C143.835 135.708 146.372 149.706 139.063 155.314C131.754 160.921 131.01 134.771 131.01 134.771L143.835 135.708Z" fill="#B97964"></path> <path opacity="0.4" d="M143.835 135.708C143.835 135.708 146.372 149.706 139.063 155.314C131.754 160.921 131.01 134.771 131.01 134.771L143.835 135.708Z" fill="black"></path> <path d="M117.703 167.093C119.332 169.363 121.663 171.036 124.336 171.855C127.009 172.673 129.877 172.593 132.5 171.626C135.926 170.425 138.763 167.96 140.429 164.737C140.664 164.31 140.871 163.842 141.077 163.36C144.497 154.666 145.215 133.449 136.003 134.234C128.39 134.881 120.943 132.539 117.055 139.111C115.944 140.981 115.292 143.086 115.152 145.256C114.324 155.396 113.359 161.279 117.703 167.093Z" fill="#B97964"></path> <path d="M129.948 150.271C129.782 151.07 130.169 151.8 130.706 151.883C131.244 151.966 131.768 151.346 131.892 150.505C132.016 149.665 131.658 148.976 131.134 148.907C130.61 148.838 130.072 149.444 129.948 150.271Z" fill="#263238"></path> <path d="M139.175 151.58C139.009 152.379 139.409 153.109 139.933 153.192C140.457 153.275 140.995 152.655 141.105 151.814C141.216 150.974 140.885 150.285 140.347 150.202C139.809 150.119 139.285 150.808 139.175 151.58Z" fill="#263238"></path> <path d="M136.181 151.566C136.803 154.195 137.782 156.726 139.091 159.089C138.473 159.409 137.793 159.592 137.098 159.623C136.402 159.653 135.708 159.532 135.064 159.268L136.181 151.566Z" fill="#A24E3F"></path> <path d="M127.521 146.882C127.606 146.907 127.695 146.909 127.78 146.887C127.865 146.865 127.942 146.82 128.004 146.758C128.426 146.323 128.944 145.992 129.516 145.792C130.088 145.591 130.698 145.525 131.3 145.6C131.426 145.625 131.557 145.6 131.665 145.531C131.773 145.462 131.849 145.353 131.879 145.228C131.893 145.167 131.895 145.103 131.883 145.041C131.872 144.979 131.848 144.919 131.814 144.867C131.779 144.814 131.734 144.769 131.681 144.734C131.628 144.699 131.569 144.675 131.507 144.664C130.757 144.554 129.993 144.621 129.274 144.861C128.556 145.1 127.903 145.504 127.37 146.041C127.28 146.134 127.23 146.257 127.23 146.386C127.23 146.514 127.28 146.638 127.37 146.73C127.413 146.787 127.464 146.838 127.521 146.882V146.882Z" fill="#263238"></path> <path d="M143.587 148.962C143.676 148.996 143.774 148.996 143.863 148.962C143.924 148.947 143.981 148.918 144.031 148.88C144.081 148.841 144.122 148.792 144.152 148.736C144.182 148.68 144.2 148.619 144.205 148.556C144.209 148.493 144.201 148.429 144.18 148.37V148.37C143.961 147.635 143.569 146.964 143.036 146.412C142.503 145.861 141.846 145.445 141.118 145.201C141.058 145.182 140.994 145.176 140.931 145.182C140.868 145.189 140.806 145.208 140.751 145.239C140.696 145.27 140.647 145.312 140.608 145.362C140.569 145.413 140.541 145.47 140.525 145.532C140.491 145.654 140.507 145.785 140.569 145.896C140.631 146.007 140.734 146.089 140.856 146.124V146.124C141.427 146.334 141.941 146.673 142.357 147.116C142.774 147.558 143.081 148.091 143.256 148.673C143.283 148.744 143.328 148.808 143.385 148.859C143.443 148.909 143.512 148.945 143.587 148.962V148.962Z" fill="#263238"></path> <path d="M128.666 159.626C128.666 159.626 130.362 163.263 133.824 163.126" stroke="#263238" stroke-width="0.5" stroke-linecap="round" stroke-linejoin="round"></path> <path d="M124.266 133.876L124.404 138.367C123.618 138.652 122.969 139.224 122.588 139.968C122.207 140.712 122.121 141.572 122.349 142.376C123.425 146.234 120.763 151.828 117.688 153.867C117.688 153.867 117.688 152.241 116.309 152.489C114.93 152.737 114.503 161.197 116.778 165.454C116.778 165.454 111.91 160.976 110.462 151.924C109.083 143.561 109.345 138.257 110.462 134.248L124.266 133.876Z" fill="#B97964"></path> <path opacity="0.4" d="M124.266 133.876L124.404 138.367C123.618 138.652 122.969 139.224 122.588 139.968C122.207 140.712 122.121 141.572 122.349 142.376C123.425 146.234 120.763 151.828 117.688 153.867C117.688 153.867 117.688 152.241 116.309 152.489C114.93 152.737 114.503 161.197 116.778 165.454C116.778 165.454 111.91 160.976 110.462 151.924C109.083 143.561 109.345 138.257 110.462 134.248L124.266 133.876Z" fill="black"></path> <path d="M109.691 139.263C114.612 139.744 119.579 139.442 124.405 138.367C138.292 135.612 144.208 140.709 144.208 140.709C145.169 139.846 145.926 138.78 146.425 137.589C146.923 136.397 147.15 135.11 147.09 133.821C146.691 129.825 141.133 129.15 141.133 129.15C141.133 129.15 139.464 124.645 135.782 123.281C132.1 121.917 128.405 125.334 128.405 125.334C128.405 125.334 123.812 120.897 118.462 122.165C116.66 122.534 115.041 123.51 113.873 124.93C112.706 126.349 112.062 128.126 112.049 129.963C112.049 129.963 105.774 130.597 105.912 133.821C106.05 137.045 109.691 139.263 109.691 139.263Z" fill="#263238"></path> <path d="M131.025 156.14C133.516 156.14 135.535 153.815 135.535 150.946C135.535 148.077 133.516 145.752 131.025 145.752C128.535 145.752 126.516 148.077 126.516 150.946C126.516 153.815 128.535 156.14 131.025 156.14Z" stroke="#263238" stroke-width="0.5" stroke-linecap="round" stroke-linejoin="round"></path> <path d="M146.869 151.718C146.745 152.58 146.375 153.389 145.804 154.047C145.233 154.706 144.484 155.187 143.647 155.432C142.81 155.678 141.921 155.678 141.084 155.433C140.247 155.188 139.498 154.707 138.927 154.049C138.355 153.391 137.985 152.583 137.86 151.72C137.736 150.858 137.862 149.978 138.223 149.185C138.585 148.392 139.167 147.719 139.9 147.248C140.634 146.776 141.487 146.525 142.359 146.524C143.644 146.622 144.838 147.223 145.682 148.195C146.526 149.168 146.952 150.433 146.869 151.718Z" stroke="#263238" stroke-width="0.5" stroke-linecap="round" stroke-linejoin="round"></path> <path d="M135.521 151.566C135.521 151.566 136.982 150.657 137.851 151.718" stroke="#263238" stroke-width="0.5" stroke-linecap="round" stroke-linejoin="round"></path> <path d="M126.514 150.946L118.612 149.885C117.576 149.752 116.53 150.034 115.702 150.671L115.357 150.946" stroke="#263238" stroke-width="0.5" stroke-linecap="round" stroke-linejoin="round"></path> <path d="M109.608 152.847C110.401 155.271 112.121 157.282 114.393 158.441C117.414 159.943 119.565 157.408 119.261 154.225C118.986 151.387 117.096 147.116 113.745 146.951C113.03 146.927 112.32 147.081 111.68 147.401C111.039 147.72 110.489 148.194 110.078 148.78C109.667 149.365 109.409 150.044 109.327 150.754C109.245 151.464 109.342 152.184 109.608 152.847V152.847Z" fill="#B97964"></path> <path opacity="0.2" d="M59.2178 226.957C72.2359 221.556 82.5235 199.25 82.5235 199.25L75.1319 194.786L65.0925 202.846L64.1823 206.194C62.8033 211.306 61.507 216.748 60.2658 222.259C59.9073 223.83 59.5625 225.4 59.2178 226.957Z" fill="black"></path> <path d="M130.914 229.327L153.365 221.088L154.013 222.989L131.548 230.98L130.914 229.327Z" fill="#407BFF"></path> <path d="M72.7435 286.024L7.66602 275.714L1.30147 315.816L66.3789 326.125L72.7435 286.024Z" fill="#407BFF"></path> <path d="M30.6859 290.982L17.4609 297.829L27.914 308.424" stroke="white" stroke-width="2" stroke-linecap="round" stroke-linejoin="round"></path> <path d="M43.3174 310.863L56.5286 304.015L46.0892 293.42" stroke="white" stroke-width="2" stroke-linecap="round" stroke-linejoin="round"></path> <path d="M32.5195 309.154L41.4833 292.69" stroke="white" stroke-width="2" stroke-linecap="round" stroke-linejoin="round"></path> <path d="M67.3396 182.304C67.3396 182.304 42.8066 206.897 39.4693 211.678C36.132 216.459 29.7333 269.461 29.7333 269.461C29.7333 269.461 28.3542 269.929 28.2715 271.073C28.1888 272.216 28.0508 287.096 28.2715 287.785C28.4921 288.474 39.7727 295.432 41.4413 293.778C43.1099 292.125 45.4267 275.275 45.4267 275.275L39.4693 269.461C39.4693 269.461 46.3645 230.429 50.736 224.105C55.1076 217.781 72.9247 204.252 72.9247 204.252L67.3396 182.304Z" fill="#B97964"></path> <path d="M86.1918 172.398C89.7635 179.962 87.0468 195.889 80.455 201.51C73.4805 207.288 66.1074 212.569 58.3904 217.313L46.3652 201.565C46.3652 201.565 59.1627 189.082 66.9129 181.891C72.1842 176.785 78.9283 173.465 86.1918 172.398V172.398Z" fill="#407BFF"></path> <path opacity="0.4" d="M86.1918 172.398C89.7635 179.962 87.0468 195.889 80.455 201.51C73.4805 207.288 66.1074 212.569 58.3904 217.313L46.3652 201.565C46.3652 201.565 59.1627 189.082 66.9129 181.891C72.1842 176.785 78.9283 173.465 86.1918 172.398V172.398Z" fill="white"></path> <path d="M46.3653 200.559L44.876 202.585L57.439 218.994L59.218 217.726L46.3653 200.559Z" fill="#407BFF"></path> </g> <defs> <clipPath id="clip0"> <rect width="619" height="397" fill="white" transform="translate(1 122)"></rect> </clipPath> </defs> </svg> 